@startuml
[*] --> State1
State1 --> State2
State1 --> [*]
State2 --> [*]
State2 --> State3
State3 --> State3 : Failed
State3 --> [*] : succeed/save result
State3 --> [*] : Aborted
state State3{
    state "Accumulate Enough Data \nLong State Name" as long1
    [*] -->  long1
    long1 : Just a test
    long1 --> long1 : new data
    long1 --> ProcessData : Enough Data
}




@endum